<?xml version="1.0" encoding="UTF-8"?>
<svg version="1.1" xmlns="http://www.w3.org/2000/svg" width="50" height="50">
<path d="M0 0 C2 2 2 2 2.0078125 4.44921875 C1 7 1 7 -1.6953125 8.45703125 C-2.82710937 8.90433594 -3.95890625 9.35164063 -5.125 9.8125 C-12.87857565 13.62977573 -14.83695568 18.55346635 -17.6328125 26.453125 C-19.57495564 31.4915992 -19.57495564 31.4915992 -22 33 C-23.65 33 -25.3 33 -27 33 C-26.67 28.71 -26.34 24.42 -26 20 C-27.11375 20.495 -28.2275 20.99 -29.375 21.5 C-34.26619193 23.36706789 -38.8307192 23.28600529 -44 23 C-48.59225513 14.738041 -48.59225513 14.738041 -48 10 C-46.25 9.3125 -46.25 9.3125 -44 9 C-43.401875 9.495 -42.80375 9.99 -42.1875 10.5 C-39.92329527 12.39139183 -39.92329527 12.39139183 -36.25 11.6875 C-35.1775 11.460625 -34.105 11.23375 -33 11 C-34.93254772 8.9754262 -36.63158688 7.57894208 -39 6 C-38.67 4.68 -38.34 3.36 -38 2 C-32.92444712 0.60238399 -29.59761858 1.81650631 -24.71875 3.40625 C-20.40097144 4.34921313 -17.72157628 3.35371386 -13.8125 1.4375 C-9.40938263 -0.54099327 -4.74641022 -0.66814184 0 0 Z M-15.4140625 5.625 C-17.17363281 6.43710937 -17.17363281 6.43710937 -18.96875 7.265625 C-20.18805799 7.84257223 -21.40680386 8.42070885 -22.625 9 C-25.02890081 10.13648193 -27.43810262 11.25864191 -29.8515625 12.375 C-31.44218506 13.12910156 -31.44218506 13.12910156 -33.06494141 13.8984375 C-37.21944373 15.45767178 -39.8224394 15.3925202 -44 14 C-43.34 15.98 -42.68 17.96 -42 20 C-36.4904523 20.34035816 -32.48674732 19.31361461 -27.5625 17 C-26.92634766 16.71382812 -26.29019531 16.42765625 -25.63476562 16.1328125 C-24.08455985 15.43347155 -22.54148389 14.71836143 -21 14 C-21.15597656 14.67546875 -21.31195312 15.3509375 -21.47265625 16.046875 C-21.66730469 16.93890625 -21.86195312 17.8309375 -22.0625 18.75 C-22.25972656 19.63171875 -22.45695312 20.5134375 -22.66015625 21.421875 C-23.00298742 24.02266321 -22.70340244 25.51848845 -22 28 C-21.56171875 26.84242187 -21.1234375 25.68484375 -20.671875 24.4921875 C-15.01788975 10.580648 -15.01788975 10.580648 -7.5 6.9375 C-5.68747988 6.23537278 -3.85920853 5.5670586 -2 5 C-2 4.34 -2 3.68 -2 3 C-7.24493383 2.72234162 -10.67898017 3.3849004 -15.4140625 5.625 Z M-33 5 C-31.77190909 6.64555699 -31.77190909 6.64555699 -30 8 C-27.83700789 7.77242269 -27.83700789 7.77242269 -26 7 C-28.64738916 5.5393715 -29.89448334 5 -33 5 Z " fill="#000000" transform="translate(48,11)"/>
</svg>
