<svg width="17" height="17" viewBox="0 0 17 17" fill="none" xmlns="http://www.w3.org/2000/svg">
<path d="M0.506836 2.00166L7.3475 6.71462C8.1752 5.68285 9.03716 4.63607 9.85203 3.69132L1.49287 1.01562L0.506836 2.00166Z" fill="white"/>
<path d="M10.29 9.6594L15.003 16.5001L15.9891 15.514L13.3134 7.15698C12.3687 7.97184 11.3205 8.8338 10.2901 9.66152L10.29 9.6594Z" fill="white"/>
<path d="M1.57715 10.5564L3.38026 11.835C3.59004 11.5553 3.88046 11.17 4.23366 10.7076L2.52402 10.0283L1.57786 10.5563L1.57715 10.5564Z" fill="white"/>
<path d="M6.81051 14.3152L6.2204 12.8318C5.77444 13.1714 5.4041 13.449 5.13867 13.6502L6.28033 15.2614L6.80835 14.3152H6.81051Z" fill="white"/>
<path d="M14.124 5.95106C17.4554 2.92775 16.343 1.00976 16.2047 0.800057C15.9785 0.646647 14.0933 -0.467901 11.0537 2.88081C7.88408 6.37357 3.35031 12.4801 3.30464 12.5422C2.96857 13.0174 2.82229 13.671 2.96285 14.0421C3.33388 14.1812 3.98964 14.0349 4.46629 13.6967C4.5248 13.6532 10.6313 9.11927 14.124 5.95203L14.124 5.95106Z" fill="white"/>
</svg>
