<?xml version="1.0" encoding="UTF-8"?>
<svg version="1.1" xmlns="http://www.w3.org/2000/svg" width="32" height="32">
<path d="M0 0 C1.98 0 3.96 0 6 0 C6 3.3 6 6.6 6 10 C8.97 10.99 11.94 11.98 15 13 C15 15.31 15 17.62 15 20 C12.69 20 10.38 20 8 20 C8.33 20.33 8.66 20.66 9 21 C9 22.98 9 24.96 9 27 C5.04 27 1.08 27 -3 27 C-3 21 -3 21 -2 20 C-4.31 20 -6.62 20 -9 20 C-9 17.69 -9 15.38 -9 13 C-6.03 12.01 -3.06 11.02 0 10 C0 6.7 0 3.4 0 0 Z M2 3 C2 6.3 2 9.6 2 13 C0.824375 13.185625 0.824375 13.185625 -0.375 13.375 C-3.14057822 13.79117993 -3.14057822 13.79117993 -5 16 C-3.02 16 -1.04 16 1 16 C1 18.31 1 20.62 1 23 C2.32 22.67 3.64 22.34 5 22 C5 20.02 5 18.04 5 16 C6.98 16 8.96 16 11 16 C7.94419026 13.41222792 7.94419026 13.41222792 4 13 C4 9.7 4 6.4 4 3 C3.34 3 2.68 3 2 3 Z " fill="#000000" transform="translate(13,3)"/>
</svg>
